<svg width="23" height="23" viewBox="0 0 23 23" fill="none" xmlns="http://www.w3.org/2000/svg">
<path d="M0 1.25C0 0.835786 0.335786 0.5 0.75 0.5H3C3.34415 0.5 3.64414 0.734223 3.72761 1.0681L4.33558 3.5H21.75C21.9747 3.5 22.1876 3.60074 22.33 3.77451C22.4725 3.94827 22.5295 4.17676 22.4854 4.39709L20.9854 11.8971C20.9181 12.2339 20.6306 12.4819 20.2876 12.4991L6.19233 13.206L6.62244 15.5H19.5C19.9142 15.5 20.25 15.8358 20.25 16.25C20.25 16.6642 19.9142 17 19.5 17H18H7.5H6C5.63909 17 5.32936 16.7429 5.26285 16.3882L3.01697 4.4102L2.41442 2H0.75C0.335786 2 0 1.66421 0 1.25ZM4.65369 5L5.91335 11.7181L19.6291 11.0302L20.8351 5H4.65369ZM7.5 17C5.84315 17 4.5 18.3431 4.5 20C4.5 21.6569 5.84315 23 7.5 23C9.15685 23 10.5 21.6569 10.5 20C10.5 18.3431 9.15685 17 7.5 17ZM18 17C16.3431 17 15 18.3431 15 20C15 21.6569 16.3431 23 18 23C19.6569 23 21 21.6569 21 20C21 18.3431 19.6569 17 18 17ZM7.5 18.5C8.32843 18.5 9 19.1716 9 20C9 20.8284 8.32843 21.5 7.5 21.5C6.67157 21.5 6 20.8284 6 20C6 19.1716 6.67157 18.5 7.5 18.5ZM18 18.5C18.8284 18.5 19.5 19.1716 19.5 20C19.5 20.8284 18.8284 21.5 18 21.5C17.1716 21.5 16.5 20.8284 16.5 20C16.5 19.1716 17.1716 18.5 18 18.5Z" fill="#2A132E" fill-opacity="0.5"/>
</svg>
