<svg width="16" height="17" viewBox="0 0 16 17" fill="none" xmlns="http://www.w3.org/2000/svg">
<path d="M0.888889 3.16663C1.37981 3.16663 1.77778 2.56969 1.77778 1.83332C1.77778 1.09695 1.37981 0.5 0.888889 0.5C0.397969 0.5 0 1.09695 0 1.83332C0 2.56969 0.397969 3.16663 0.888889 3.16663Z" fill="#2A132E"/>
<path d="M0.888889 9.83289C1.37981 9.83289 1.77778 9.23595 1.77778 8.49958C1.77778 7.76321 1.37981 7.16626 0.888889 7.16626C0.397969 7.16626 0 7.76321 0 8.49958C0 9.23595 0.397969 9.83289 0.888889 9.83289Z" fill="#2A132E"/>
<path d="M0.888889 16.4999C1.37981 16.4999 1.77778 15.9029 1.77778 15.1666C1.77778 14.4302 1.37981 13.8333 0.888889 13.8333C0.397969 13.8333 0 14.4302 0 15.1666C0 15.9029 0.397969 16.4999 0.888889 16.4999Z" fill="#2A132E"/>
<path d="M15.1655 7.16626H4.3922C3.93073 7.16626 3.55664 7.72739 3.55664 8.41958V8.57958C3.55664 9.27176 3.93073 9.83289 4.3922 9.83289H15.1655C15.627 9.83289 16.0011 9.27176 16.0011 8.57958V8.41958C16.0011 7.72739 15.627 7.16626 15.1655 7.16626Z" fill="#2A132E"/>
<path d="M15.1655 13.8333H4.3922C3.93073 13.8333 3.55664 14.3944 3.55664 15.0866V15.2466C3.55664 15.9388 3.93073 16.4999 4.3922 16.4999H15.1655C15.627 16.4999 16.0011 15.9388 16.0011 15.2466V15.0866C16.0011 14.3944 15.627 13.8333 15.1655 13.8333Z" fill="#2A132E"/>
<path d="M15.1655 0.5H4.3922C3.93073 0.5 3.55664 1.06113 3.55664 1.75332V1.91331C3.55664 2.6055 3.93073 3.16663 4.3922 3.16663H15.1655C15.627 3.16663 16.0011 2.6055 16.0011 1.91331V1.75332C16.0011 1.06113 15.627 0.5 15.1655 0.5Z" fill="#2A132E"/>
</svg>
