<svg width="22" height="22" viewBox="0 0 22 22" fill="none" xmlns="http://www.w3.org/2000/svg">
<path d="M8.15728 19.7714V16.7047C8.15726 15.9246 8.79318 15.2908 9.58107 15.2856H12.4671C13.2588 15.2856 13.9006 15.9209 13.9006 16.7047V16.7047V19.7809C13.9004 20.4432 14.4343 20.9845 15.1031 21H17.0271C18.9452 21 20.5001 19.4607 20.5001 17.5618V17.5618V8.83783C20.4898 8.09083 20.1355 7.38935 19.538 6.93303L12.9578 1.6853C11.805 0.771566 10.1663 0.771566 9.01348 1.6853L2.46209 6.94256C1.86232 7.39702 1.50745 8.09967 1.50006 8.84736V17.5618C1.50006 19.4607 3.05494 21 4.97297 21H6.89702C7.58242 21 8.13804 20.4499 8.13804 19.7714V19.7714" stroke="#2A132E" stroke-opacity="0.5" stroke-width="2" stroke-linecap="round" stroke-linejoin="round"/>
</svg>
