<svg width="16" height="10" viewBox="0 0 16 10" fill="none" xmlns="http://www.w3.org/2000/svg">
<path d="M4 1.85V2.75H5V1.85H4Z" fill="#2A132E"/>
<path d="M11 1.85V2.75H12V1.85H11Z" fill="#2A132E"/>
<path d="M4 3.65V4.55H5V3.65H4Z" fill="#2A132E"/>
<path d="M11 3.65V4.55H12V3.65H11Z" fill="#2A132E"/>
<path d="M4 5.45V6.35H5V5.45H4Z" fill="#2A132E"/>
<path d="M11 5.45V6.35H12V5.45H11Z" fill="#2A132E"/>
<path d="M4 7.25V8.15H5V7.25H4Z" fill="#2A132E"/>
<path d="M11 7.25V8.15H12V7.25H11Z" fill="#2A132E"/>
<path d="M1.5 0C0.671573 0 0 0.671573 0 1.5V3C0 3.27614 0.223858 3.5 0.5 3.5C1.32843 3.5 2 4.17157 2 5C2 5.82843 1.32843 6.5 0.5 6.5C0.223858 6.5 0 6.72386 0 7V8.5C0 9.32843 0.671573 10 1.5 10H14.5C15.3284 10 16 9.32843 16 8.5V7C16 6.72386 15.7761 6.5 15.5 6.5C14.6716 6.5 14 5.82843 14 5C14 4.17157 14.6716 3.5 15.5 3.5C15.7761 3.5 16 3.27614 16 3V1.5C16 0.671573 15.3284 0 14.5 0H1.5ZM1 1.5C1 1.22386 1.22386 1 1.5 1H14.5C14.7761 1 15 1.22386 15 1.5V2.55001C13.8589 2.78164 13 3.79052 13 5C13 6.20948 13.8589 7.21836 15 7.44999V8.5C15 8.77614 14.7761 9 14.5 9H1.5C1.22386 9 1 8.77614 1 8.5V7.44999C2.14112 7.21836 3 6.20948 3 5C3 3.79052 2.14112 2.78164 1 2.55001V1.5Z" fill="#2A132E"/>
</svg>
